<?xml version="1.0" encoding="utf-8"?>
<!-- Generator: Adobe Illustrator 27.1.1, SVG Export Plug-In . SVG Version: 6.00 Build 0)  -->
<svg version="1.1" id="Layer_2_00000059307022342368725700000017427314789329787785_"
	 xmlns="http://www.w3.org/2000/svg" xmlns:xlink="http://www.w3.org/1999/xlink" x="0px" y="0px" viewBox="0 0 539.3 710.2"
	 style="enable-background:new 0 0 539.3 710.2;" xml:space="preserve">
<style type="text/css">
	.st0{opacity:0.5;fill:#62707A;enable-background:new    ;}
	.st1{fill:#4B6B80;}
	.st2{fill:#3B94CC;}
</style>
<rect x="222.5" y="0.9" transform="matrix(0.971 -0.239 0.239 0.971 -77.0706 74.6776)" class="st0" width="93.7" height="708.3"/>
<path class="st1" d="M494.8,435.7L130.4,646.1C89,670,36.1,655.8,12.2,614.5h0c-23.9-41.4-9.7-94.3,31.7-118.2l364.4-210.4
	c41.4-23.9,94.3-9.7,118.2,31.7v0C550.3,359,536.1,411.9,494.8,435.7z"/>
<path class="st2" d="M129.8,74.9L495.4,286c41.4,23.9,55.5,76.8,31.7,118.2l0,0c-23.9,41.4-76.8,55.5-118.2,31.7L43.3,224.7
	C1.9,200.9-12.3,148,11.6,106.6l0,0C35.5,65.2,88.4,51,129.8,74.9z"/>
<ellipse transform="matrix(0.1602 -0.9871 0.9871 0.1602 -191.4156 1020.178)" class="st0" cx="503.8" cy="622.6" rx="35.5" ry="35.5"/>
</svg>
